<?xml version="1.0" encoding="UTF-8" standalone="no"?>
<!-- Created with Inkscape (http://www.inkscape.org/) -->

<svg
   xmlns:dc="http://purl.org/dc/elements/1.1/"
   xmlns:cc="http://creativecommons.org/ns#"
   xmlns:rdf="http://www.w3.org/1999/02/22-rdf-syntax-ns#"
   xmlns:svg="http://www.w3.org/2000/svg"
   xmlns="http://www.w3.org/2000/svg"
   xmlns:xlink="http://www.w3.org/1999/xlink"
   xmlns:sodipodi="http://sodipodi.sourceforge.net/DTD/sodipodi-0.dtd"
   xmlns:inkscape="http://www.inkscape.org/namespaces/inkscape"
   width="320"
   height="230"
   id="svg3114"
   version="1.1"
   inkscape:version="0.48.1 r9760"
   sodipodi:docname="logo3-withAspect.svg">
  <defs
     id="defs3116">
    <linearGradient
       y2="339.36896"
       x2="308.88391"
       y1="418.59042"
       x1="427.79593"
       gradientTransform="translate(-15.844294,-42.822415)"
       gradientUnits="userSpaceOnUse"
       id="linearGradient4216"
       xlink:href="#linearGradient4145"
       inkscape:collect="always" />
    <linearGradient
       id="linearGradient4145"
       inkscape:collect="always">
      <stop
         id="stop4147"
         offset="0"
         style="stop-color:#000000;stop-opacity:1;" />
      <stop
         id="stop4149"
         offset="1"
         style="stop-color:#000000;stop-opacity:0;" />
    </linearGradient>
    <filter
       color-interpolation-filters="sRGB"
       id="filter4141"
       inkscape:collect="always">
      <feGaussianBlur
         id="feGaussianBlur4143"
         stdDeviation="1.0889941"
         inkscape:collect="always" />
    </filter>
    <radialGradient
       r="27.959114"
       fy="90.41909"
       fx="69.98687"
       cy="105.93911"
       cx="61.56411"
       gradientTransform="matrix(1.1767241,-0.06570592,0.06229194,1.0081481,242.27164,193.29801)"
       gradientUnits="userSpaceOnUse"
       id="radialGradient4218"
       xlink:href="#linearGradient1439"
       inkscape:collect="always" />
    <linearGradient
       id="linearGradient1439">
      <stop
         style="stop-color:#ffffff;stop-opacity:0.5704698;"
         offset="0"
         id="stop1440" />
      <stop
         style="stop-color:#96b0c6;stop-opacity:0.89932889;"
         offset="1"
         id="stop1441" />
    </linearGradient>
    <linearGradient
       y2="111.23763"
       x2="60.490723"
       y1="84.017433"
       x1="57.667629"
       gradientTransform="matrix(1.1481635,-0.03408387,0.03066403,0.9334827,252.4323,191.06145)"
       gradientUnits="userSpaceOnUse"
       id="linearGradient4220"
       xlink:href="#linearGradient1045"
       inkscape:collect="always" />
    <linearGradient
       id="linearGradient1045">
      <stop
         style="stop-color:#ffffff;stop-opacity:0.74901962;"
         offset="0.00000000"
         id="stop1046" />
      <stop
         style="stop-color:#ffffff;stop-opacity:0.00000000;"
         offset="1.0000000"
         id="stop1047" />
    </linearGradient>
    <linearGradient
       y2="167.94406"
       x2="54.32185"
       y1="103.57257"
       x1="42.497837"
       gradientTransform="matrix(1.1879329,-0.03526444,0.02518942,0.7668232,265.95849,191.03645)"
       gradientUnits="userSpaceOnUse"
       id="linearGradient4222"
       xlink:href="#linearGradient1045"
       inkscape:collect="always" />
    <linearGradient
       id="linearGradient3335">
      <stop
         style="stop-color:#ffffff;stop-opacity:0.74901962;"
         offset="0.00000000"
         id="stop3337" />
      <stop
         style="stop-color:#ffffff;stop-opacity:0.00000000;"
         offset="1.0000000"
         id="stop3339" />
    </linearGradient>
    <linearGradient
       y2="145.33636"
       x2="103.6906"
       y1="138.23856"
       x1="110.05048"
       gradientTransform="matrix(1.0181639,-0.03179448,0.0306403,0.9812034,248.50031,191.28893)"
       gradientUnits="userSpaceOnUse"
       id="linearGradient4224"
       xlink:href="#linearGradient1045"
       inkscape:collect="always" />
    <linearGradient
       id="linearGradient3342">
      <stop
         style="stop-color:#ffffff;stop-opacity:0.74901962;"
         offset="0.00000000"
         id="stop3344" />
      <stop
         style="stop-color:#ffffff;stop-opacity:0.00000000;"
         offset="1.0000000"
         id="stop3346" />
    </linearGradient>
    <linearGradient
       y2="327.80692"
       x2="358.85184"
       y1="336.3714"
       x1="350.71558"
       gradientUnits="userSpaceOnUse"
       id="linearGradient4226"
       xlink:href="#linearGradient4191"
       inkscape:collect="always" />
    <linearGradient
       id="linearGradient4191"
       inkscape:collect="always">
      <stop
         id="stop4193"
         offset="0"
         style="stop-color:#000000;stop-opacity:1;" />
      <stop
         id="stop4195"
         offset="1"
         style="stop-color:#000000;stop-opacity:0;" />
    </linearGradient>
  </defs>
  <sodipodi:namedview
     id="base"
     pagecolor="#ffffff"
     bordercolor="#666666"
     borderopacity="1.0"
     inkscape:pageopacity="0.0"
     inkscape:pageshadow="2"
     inkscape:zoom="2.3977541"
     inkscape:cx="171.79605"
     inkscape:cy="104.32706"
     inkscape:document-units="px"
     inkscape:current-layer="layer1"
     showgrid="false"
     inkscape:window-width="1440"
     inkscape:window-height="876"
     inkscape:window-x="0"
     inkscape:window-y="24"
     inkscape:window-maximized="1" />
  <metadata
     id="metadata3119">
    <rdf:RDF>
      <cc:Work
         rdf:about="">
        <dc:format>image/svg+xml</dc:format>
        <dc:type
           rdf:resource="http://purl.org/dc/dcmitype/StillImage" />
        <dc:title></dc:title>
      </cc:Work>
    </rdf:RDF>
  </metadata>
  <g
     inkscape:label="Layer 1"
     inkscape:groupmode="layer"
     id="layer1"
     transform="translate(0,-822.36218)">
    <g
       transform="matrix(0.49366749,0,0,0.49366749,-9.7140734,652.34565)"
       id="g3208">
      <g
         inkscape:export-ydpi="72"
         inkscape:export-xdpi="72"
         inkscape:export-filename="C:\Users\star\Desktop\siteLUCIANA.png"
         transform="matrix(3.2402353,0,0,3.2402353,-837.70625,222.00454)"
         id="g29995">
        <g
           id="g20316"
           transform="matrix(1.25,0,0,-1.25,354.89406,76.859273)"
           style="fill:#ffcc00"
           inkscape:export-filename="C:\Users\star\Desktop\siteLUCIANA.png"
           inkscape:export-xdpi="72"
           inkscape:export-ydpi="72">
          <path
             inkscape:connector-curvature="0"
             d="M 0,0 C 0,0 5.903,-1.043 8.001,-2.926 L 0.248,-3.297 -1.075,-0.973 0,0 z"
             style="fill:#ffcc00;fill-opacity:1;fill-rule:nonzero;stroke:none"
             id="path20318" />
        </g>
        <g
           id="g29954">
          <g
             inkscape:export-ydpi="72"
             inkscape:export-xdpi="72"
             inkscape:export-filename="C:\Users\star\Desktop\siteLUCIANA.png"
             style="fill:#5fbcd3"
             transform="matrix(1.25,0,0,-1.25,191.71657,664.58264)"
             id="g20168">
            <g
               style="fill:#5fbcd3"
               id="g20170">
              <g
                 style="fill:#5fbcd3"
                 id="g20176">
                <g
                   style="fill:#5fbcd3"
                   id="g20178">
                  <path
                     inkscape:connector-curvature="0"
                     id="path20186"
                     style="fill:#5fbcd3;stroke:none"
                     d="m 63.94,435.871 c 0,0 1.774,-3.374 6.628,-0.671 l 0,0 c 4.856,2.705 13.616,10.146 13.616,10.146 l 0,0 -1.033,1.283 c 0,0 -15.938,-9.618 -19.211,-10.758" />
                </g>
              </g>
            </g>
          </g>
          <g
             inkscape:export-ydpi="72"
             inkscape:export-xdpi="72"
             inkscape:export-filename="C:\Users\star\Desktop\siteLUCIANA.png"
             style="fill:#2c89a0"
             transform="matrix(1.25,0,0,-1.25,191.71657,664.58264)"
             id="g20188">
            <g
               style="fill:#2c89a0"
               id="g20190">
              <g
                 style="fill:#2c89a0"
                 id="g20196">
                <g
                   style="fill:#2c89a0"
                   id="g20198">
                  <path
                     inkscape:connector-curvature="0"
                     id="path20206"
                     style="fill:#2c89a0;stroke:none"
                     d="m 66.511,433.255 c 0,0 2.747,-3.113 7.26,0.129 l 0,0 c 4.516,3.241 11.77,11.598 11.77,11.598 l 0,0 -1.173,1.157 c 0,0 -14.735,-11.377 -17.857,-12.884" />
                </g>
              </g>
            </g>
          </g>
          <g
             inkscape:export-ydpi="72"
             inkscape:export-xdpi="72"
             inkscape:export-filename="C:\Users\star\Desktop\siteLUCIANA.png"
             style="fill:#006680"
             transform="matrix(1.25,0,0,-1.25,191.71657,664.58264)"
             id="g20208">
            <g
               style="fill:#006680"
               id="g20210">
              <g
                 style="fill:#006680"
                 id="g20216">
                <g
                   style="fill:#006680"
                   id="g20218">
                  <path
                     inkscape:connector-curvature="0"
                     id="path20226"
                     style="fill:#006680;stroke:none"
                     d="m 69.326,430.385 c 0,0 2.679,-2.621 6.807,1.101 l 0,0 c 4.127,3.722 10.804,12.666 10.804,12.666 l 0,0 -1.293,1.019 c 0,0 -13.383,-12.943 -16.318,-14.786" />
                </g>
              </g>
            </g>
          </g>
          <g
             inkscape:export-ydpi="72"
             inkscape:export-xdpi="72"
             inkscape:export-filename="C:\Users\star\Desktop\siteLUCIANA.png"
             style="fill:#008080"
             transform="matrix(1.25,0,0,-1.25,191.71657,664.58264)"
             id="g20228">
            <g
               style="fill:#008080"
               id="g20230">
              <g
                 style="fill:#008080"
                 id="g20236">
                <g
                   style="fill:#008080"
                   id="g20238">
                  <path
                     inkscape:connector-curvature="0"
                     id="path20246"
                     style="fill:#008080;stroke:none"
                     d="m 73.44,428.836 c 0,0 3.324,-2.421 6.944,1.794 l 0,0 c 3.622,4.216 8.775,14.099 8.775,14.099 l 0,0 -1.413,0.847 c 0,0 -11.629,-14.538 -14.306,-16.74" />
                </g>
              </g>
            </g>
          </g>
          <g
             inkscape:export-ydpi="72"
             inkscape:export-xdpi="72"
             inkscape:export-filename="C:\Users\star\Desktop\siteLUCIANA.png"
             style="fill:#008080"
             transform="matrix(1.25,0,0,-1.25,191.71657,664.58264)"
             id="g20248">
            <g
               style="fill:#008080"
               id="g20250">
              <g
                 style="fill:#008080"
                 id="g20256">
                <g
                   style="fill:#008080"
                   id="g20258">
                  <path
                     inkscape:connector-curvature="0"
                     id="path20266"
                     style="fill:#008080;stroke:none"
                     d="m 87.264,488.548 c 0.546,-0.467 -2.391,1.108 -3.162,1.765 l 0,0 c 0,0 -2.228,-4.162 2.556,-6.992 l 0,0 c 0.589,-0.349 -1.939,0.713 -2.706,1.208 l 0,0 c 0,0 -1.273,-3.386 1.845,-5.692 l 0,0 c -0.113,-0.324 -1.189,-3.732 2.226,-5.921 l 0,0 c -0.205,-1.233 -0.179,-3.714 2.69,-5.373 l 0,0 c 0.163,-1.421 0.971,-3.201 3.674,-4.354 l 0,0 c 0.278,-0.116 0.573,-0.232 0.884,-0.345 l 0,0 c 6.057,-6.415 12.009,-7.629 15.69,-4.874 l 0,0 c 4.253,3.185 7.317,9.487 -2.048,18.117 l 0,0 c -7.983,7.358 -17.244,14.664 -18.574,15.706 l 0,0 c -2.052,1.783 -3.727,3.312 -4.362,4.088 l 0,0 c 0,0 -2.925,-3.704 1.287,-7.333" />
                </g>
              </g>
            </g>
          </g>
          <g
             inkscape:export-ydpi="72"
             inkscape:export-xdpi="72"
             inkscape:export-filename="C:\Users\star\Desktop\siteLUCIANA.png"
             style="fill:#00ccff"
             transform="matrix(1.25,0,0,-1.25,191.71657,664.58264)"
             id="g20268">
            <g
               style="fill:#00ccff"
               id="g20270">
              <g
                 style="fill:#00ccff"
                 id="g20276">
                <g
                   style="fill:#00ccff"
                   id="g20278">
                  <path
                     inkscape:connector-curvature="0"
                     id="path20286"
                     style="fill:#00ccff;stroke:none"
                     d="m 106.073,465.678 c -9.27,-8.96 -24.52,-19.872 -24.52,-19.872 l 0,0 c 0,0 16.915,-9.637 29.331,-6.165 l 0,0 c 12.417,3.472 15.451,17.788 20.317,27.677 l 0,0 c -0.49,4.863 -2.746,8.891 -7.469,8.892 l 0,0 c -3.987,0 -9.732,-2.87 -17.659,-10.532" />
                </g>
              </g>
            </g>
          </g>
          <g
             inkscape:export-ydpi="72"
             inkscape:export-xdpi="72"
             inkscape:export-filename="C:\Users\star\Desktop\siteLUCIANA.png"
             style="fill:#008080"
             transform="matrix(1.25,0,0,-1.25,191.71657,664.58264)"
             id="g20288">
            <g
               style="fill:#008080"
               id="g20290">
              <g
                 style="fill:#008080"
                 id="g20296">
                <g
                   style="fill:#008080"
                   id="g20298">
                  <path
                     inkscape:connector-curvature="0"
                     id="path20306"
                     style="fill:#008080;stroke:none"
                     d="m 66.051,471.91 c -3.415,-0.055 -6.262,-0.027 -7.508,0.166 l 0,0 c 0,0 0.371,-5.919 7.351,-5.78 l 0,0 c 0.906,0.019 -3.166,-0.971 -4.435,-0.999 l 0,0 c 0,0 1.405,-5.762 8.251,-4.4 l 0,0 c 0.845,0.168 -2.41,-0.957 -3.544,-1.137 l 0,0 c 0,0 1.649,-4.237 6.497,-3.78 l 0,0 c 0.167,-0.396 2.018,-4.486 7.047,-3.671 l 0,0 c 0.844,-1.323 2.946,-3.623 7.022,-2.767 l 0,0 c 1.342,-1.194 3.589,-2.182 7.086,-0.991 l 0,0 c 0.357,0.121 0.731,0.262 1.115,0.416 l 0,0 c 11.042,-0.923 17.629,2.933 18.761,8.596 l 0,0 c 1.31,6.543 -1.108,15.005 -17.103,15.228 l 0,0 c -1.245,0.017 -2.499,0.025 -3.752,0.025 l 0,0 c -12.479,0 -24.864,-0.78 -26.788,-0.906" />
                </g>
              </g>
            </g>
          </g>
          <g
             inkscape:export-ydpi="72"
             inkscape:export-xdpi="72"
             inkscape:export-filename="C:\Users\star\Desktop\siteLUCIANA.png"
             style="fill:#ffcc00"
             transform="matrix(1.25,0,0,-1.25,346.38581,76.378273)"
             id="g20320">
            <path
               inkscape:connector-curvature="0"
               id="path20322"
               style="fill:#ffcc00;fill-opacity:1;fill-rule:nonzero;stroke:none"
               d="M 0,0 C 0.194,-0.691 0.908,-1.093 1.6,-0.9 2.288,-0.707 2.692,0.007 2.498,0.698 2.305,1.388 1.59,1.791 0.9,1.598 0.21,1.405 -0.191,0.689 0,0" />
          </g>
          <g
             inkscape:export-ydpi="72"
             inkscape:export-xdpi="72"
             inkscape:export-filename="C:\Users\star\Desktop\siteLUCIANA.png"
             style="fill:#241f1c"
             transform="matrix(1.25,0,0,-1.25,347.49656,76.111523)"
             id="g20324">
            <path
               inkscape:connector-curvature="0"
               id="path20326"
               style="fill:#241f1c;fill-opacity:1;fill-rule:nonzero;stroke:none"
               d="M 0,0 C 0.09,-0.323 0.423,-0.513 0.746,-0.422 1.069,-0.332 1.259,0.003 1.168,0.326 1.077,0.649 0.742,0.839 0.419,0.748 0.097,0.658 -0.091,0.324 0,0" />
          </g>
        </g>
      </g>
      <g
         inkscape:export-ydpi="72"
         inkscape:export-xdpi="72"
         inkscape:export-filename="C:\Users\star\Desktop\siteLUCIANA.png"
         transform="matrix(3.0305786,0,0,3.0305786,-1183.522,262.24867)"
         id="g30039">
        <g
           id="g20028"
           transform="matrix(1.25,0,0,-1.25,53.031512,677.43206)"
           style="fill:#225500"
           inkscape:export-filename="C:\Users\star\Desktop\siteLUCIANA.png"
           inkscape:export-xdpi="72"
           inkscape:export-ydpi="72">
          <g
             id="g20030"
             style="fill:#225500">
            <g
               id="g20036"
               style="fill:#225500">
              <g
                 id="g20038"
                 style="fill:#225500">
                <path
                   inkscape:connector-curvature="0"
                   d="m 419.545,445.983 c 0,0 7.254,-8.357 11.769,-11.599 l 0,0 c 4.514,-3.243 7.261,-0.13 7.261,-0.13 l 0,0 c -3.122,1.508 -17.857,12.885 -17.857,12.885 l 0,0 -1.173,-1.156 z"
                   style="fill:#225500;stroke:none"
                   id="path20046" />
              </g>
            </g>
          </g>
        </g>
        <g
           id="g29904"
           transform="translate(-74.437985,-19.495663)">
          <g
             inkscape:export-ydpi="72"
             inkscape:export-xdpi="72"
             inkscape:export-filename="C:\Users\star\Desktop\siteLUCIANA.png"
             style="fill:#112b00"
             transform="matrix(1.25,0,0,-1.25,126.58333,695.59847)"
             id="g20008">
            <g
               style="fill:#112b00"
               id="g20010">
              <g
                 style="fill:#112b00"
                 id="g20016">
                <g
                   style="fill:#112b00"
                   id="g20018">
                  <path
                     inkscape:connector-curvature="0"
                     id="path20026"
                     style="fill:#112b00;stroke:none"
                     d="m 420.901,446.346 c 0,0 8.761,-7.44 13.616,-10.146 l 0,0 c 4.855,-2.703 6.63,0.671 6.63,0.671 l 0,0 c -3.274,1.14 -19.213,10.758 -19.213,10.758 l 0,0 -1.033,-1.283 z" />
                </g>
              </g>
            </g>
          </g>
          <g
             inkscape:export-ydpi="72"
             inkscape:export-xdpi="72"
             inkscape:export-filename="C:\Users\star\Desktop\siteLUCIANA.png"
             style="fill:#44aa00"
             transform="matrix(1.25,0,0,-1.25,126.58333,695.59847)"
             id="g20048">
            <g
               style="fill:#44aa00"
               id="g20050">
              <g
                 style="fill:#44aa00"
                 id="g20056">
                <g
                   style="fill:#44aa00"
                   id="g20058">
                  <path
                     inkscape:connector-curvature="0"
                     id="path20066"
                     style="fill:#44aa00;stroke:none"
                     d="m 418.148,445.152 c 0,0 6.678,-8.944 10.805,-12.666 l 0,0 c 4.128,-3.722 6.807,-1.101 6.807,-1.101 l 0,0 c -2.935,1.843 -16.318,14.786 -16.318,14.786 l 0,0 -1.294,-1.019 z" />
                </g>
              </g>
            </g>
          </g>
          <g
             inkscape:export-ydpi="72"
             inkscape:export-xdpi="72"
             inkscape:export-filename="C:\Users\star\Desktop\siteLUCIANA.png"
             style="fill:#66ff00"
             transform="matrix(1.25,0,0,-1.25,126.58333,695.59847)"
             id="g20068">
            <g
               style="fill:#66ff00"
               id="g20070">
              <g
                 style="fill:#66ff00"
                 id="g20076">
                <g
                   style="fill:#66ff00"
                   id="g20078">
                  <path
                     inkscape:connector-curvature="0"
                     id="path20086"
                     style="fill:#66ff00;stroke:none"
                     d="m 415.927,445.729 c 0,0 5.153,-9.882 8.774,-14.099 l 0,0 c 3.622,-4.216 6.944,-1.793 6.944,-1.793 l 0,0 c -2.675,2.201 -14.305,16.739 -14.305,16.739 l 0,0 -1.413,-0.847 z" />
                </g>
              </g>
            </g>
          </g>
          <g
             inkscape:export-ydpi="72"
             inkscape:export-xdpi="72"
             inkscape:export-filename="C:\Users\star\Desktop\siteLUCIANA.png"
             style="fill:#338000"
             transform="matrix(1.25,0,0,-1.25,126.58333,695.59847)"
             id="g20088">
            <g
               style="fill:#338000"
               id="g20090">
              <g
                 style="fill:#338000"
                 id="g20096">
                <g
                   style="fill:#338000"
                   id="g20098">
                  <path
                     inkscape:connector-curvature="0"
                     id="path20106"
                     style="fill:#338000;stroke:none"
                     d="m 414.747,492.793 c -1.331,-1.042 -10.591,-8.347 -18.574,-15.706 l 0,0 c -9.366,-8.63 -6.301,-14.932 -2.048,-18.117 l 0,0 c 3.68,-2.755 9.633,-1.541 15.689,4.874 l 0,0 c 0.312,0.113 0.607,0.229 0.884,0.346 l 0,0 c 2.704,1.153 3.512,2.932 3.675,4.353 l 0,0 c 2.869,1.658 2.895,4.14 2.691,5.373 l 0,0 c 3.413,2.189 2.339,5.597 2.225,5.921 l 0,0 c 3.117,2.306 1.844,5.693 1.844,5.693 l 0,0 c -0.766,-0.497 -3.294,-1.558 -2.705,-1.209 l 0,0 c 4.783,2.83 2.555,6.992 2.555,6.992 l 0,0 c -0.77,-0.657 -3.708,-2.232 -3.161,-1.764 l 0,0 c 4.212,3.628 1.287,7.332 1.287,7.332 l 0,0 c -0.635,-0.776 -2.31,-2.305 -4.362,-4.088" />
                </g>
              </g>
            </g>
          </g>
          <g
             inkscape:export-ydpi="72"
             inkscape:export-xdpi="72"
             inkscape:export-filename="C:\Users\star\Desktop\siteLUCIANA.png"
             style="fill:#8dd35f"
             transform="matrix(1.25,0,0,-1.25,126.58333,695.59847)"
             id="g20108">
            <g
               style="fill:#8dd35f"
               id="g20110">
              <g
                 style="fill:#8dd35f"
                 id="g20116">
                <g
                   style="fill:#8dd35f"
                   id="g20118">
                  <path
                     inkscape:connector-curvature="0"
                     id="path20126"
                     style="fill:#8dd35f;stroke:none"
                     d="m 373.885,468.318 c 4.866,-9.89 7.9,-24.205 20.317,-27.677 l 0,0 c 12.416,-3.472 29.331,6.165 29.331,6.165 l 0,0 c 0,0 -15.25,10.911 -24.521,19.872 l 0,0 c -7.926,7.662 -13.671,10.532 -17.658,10.532 l 0,0 c -4.723,-10e-4 -6.979,-4.029 -7.469,-8.892" />
                </g>
              </g>
            </g>
          </g>
          <g
             inkscape:export-ydpi="72"
             inkscape:export-xdpi="72"
             inkscape:export-filename="C:\Users\star\Desktop\siteLUCIANA.png"
             style="fill:#338000"
             transform="matrix(1.25,0,0,-1.25,126.58333,695.59847)"
             id="g20128">
            <g
               style="fill:#338000"
               id="g20130">
              <g
                 style="fill:#338000"
                 id="g20136">
                <g
                   style="fill:#338000"
                   id="g20138">
                  <path
                     inkscape:connector-curvature="0"
                     id="path20146"
                     style="fill:#338000;stroke:none"
                     d="m 408.495,473.791 c -15.995,-0.223 -18.413,-8.685 -17.103,-15.228 l 0,0 c 1.131,-5.663 7.719,-9.519 18.761,-8.596 l 0,0 c 0.384,-0.154 0.758,-0.295 1.115,-0.416 l 0,0 c 3.497,-1.191 5.743,-0.203 7.085,0.991 l 0,0 c 4.076,-0.856 6.179,1.443 7.023,2.767 l 0,0 c 5.029,-0.815 6.88,3.274 7.047,3.672 l 0,0 c 4.847,-0.458 6.497,3.779 6.497,3.779 l 0,0 c -1.134,0.179 -4.389,1.305 -3.544,1.137 l 0,0 c 6.845,-1.362 8.251,4.4 8.251,4.4 l 0,0 c -1.27,0.028 -5.341,1.018 -4.434,0.999 l 0,0 c 6.979,-0.138 7.35,5.78 7.35,5.78 l 0,0 c -1.246,-0.193 -4.094,-0.221 -7.508,-0.166 l 0,0 c -1.925,0.126 -14.311,0.906 -26.789,0.906 l 0,0 c -1.254,0 -2.506,-0.008 -3.751,-0.025" />
                </g>
              </g>
            </g>
          </g>
          <g
             inkscape:export-ydpi="72"
             inkscape:export-xdpi="72"
             inkscape:export-filename="C:\Users\star\Desktop\siteLUCIANA.png"
             style="fill:#ff6600"
             transform="matrix(1.25,0,0,-1.25,594.76321,106.6251)"
             id="g20156">
            <path
               inkscape:connector-curvature="0"
               id="path20158"
               style="fill:#ff6600;fill-opacity:1;fill-rule:nonzero;stroke:none"
               d="M 0,0 C 0,0 -5.903,-1.043 -8.001,-2.926 L -0.248,-3.297 1.075,-0.973 0,0 z" />
          </g>
          <g
             inkscape:export-ydpi="72"
             inkscape:export-xdpi="72"
             inkscape:export-filename="C:\Users\star\Desktop\siteLUCIANA.png"
             style="fill:#803300"
             transform="matrix(1.25,0,0,-1.25,603.27157,106.1441)"
             id="g20160">
            <path
               inkscape:connector-curvature="0"
               id="path20162"
               style="fill:#803300;fill-opacity:1;fill-rule:nonzero;stroke:none"
               d="m 0,0 c -0.194,-0.691 -0.908,-1.093 -1.6,-0.9 -0.688,0.193 -1.092,0.907 -0.898,1.598 0.193,0.69 0.908,1.093 1.598,0.9 C -0.21,1.405 0.191,0.689 0,0" />
          </g>
          <g
             inkscape:export-ydpi="72"
             inkscape:export-xdpi="72"
             inkscape:export-filename="C:\Users\star\Desktop\siteLUCIANA.png"
             style="fill:#000000"
             transform="matrix(1.25,0,0,-1.25,602.1607,105.87735)"
             id="g20164">
            <path
               inkscape:connector-curvature="0"
               id="path20166"
               style="fill:#000000;fill-opacity:1;fill-rule:nonzero;stroke:none"
               d="m 0,0 c -0.09,-0.323 -0.423,-0.513 -0.746,-0.422 -0.323,0.09 -0.513,0.425 -0.422,0.748 0.091,0.323 0.426,0.513 0.749,0.422 C -0.097,0.658 0.091,0.324 0,0" />
          </g>
        </g>
      </g>
      <text
         sodipodi:linespacing="125%"
         id="text3747"
         y="509.89407"
         x="326.07779"
         style="font-size:40px;font-style:normal;font-weight:normal;line-height:125%;letter-spacing:0px;word-spacing:0px;fill:#000000;fill-opacity:1;stroke:none;font-family:Bitstream Vera Sans"
         xml:space="preserve"><tspan
           y="509.89407"
           x="326.07779"
           id="tspan3749"
           sodipodi:role="line">#</tspan></text>
      <text
         sodipodi:linespacing="125%"
         id="text3751"
         y="563.61853"
         x="341.00128"
         style="font-size:40px;font-style:normal;font-weight:normal;line-height:125%;letter-spacing:0px;word-spacing:0px;fill:#000000;fill-opacity:1;stroke:none;font-family:Bitstream Vera Sans"
         xml:space="preserve"><tspan
           y="563.61853"
           x="341.00128"
           id="tspan3753"
           sodipodi:role="line">#</tspan></text>
      <g
         inkscape:label="Warstwa 1"
         id="layer1-5"
         transform="translate(123.49176,285.88116)">
        <g
           id="g4206"
           transform="matrix(5.8473623,0,0,5.8473623,-1659.5986,-1519.0864)">
          <path
             inkscape:connector-curvature="0"
             sodipodi:nodetypes="cssscccccsccssssc"
             id="path4039"
             d="m 316.07229,281.98202 c -0.43848,0.0486 -0.86293,0.0963 -1.30329,0.16735 -14.09135,2.2736 -23.67275,15.31462 -21.39425,29.11832 2.2785,13.8037 15.55266,23.18673 29.64399,20.91314 5.32396,-0.85901 9.9974,-3.24509 13.63696,-6.64407 l 29.69403,21.53613 c 3.12107,-0.43375 5.32521,-2.54648 6.63691,-6.36414 l -31.28016,-21.37742 -0.60163,0.70667 c 2.99888,-4.94941 4.31388,-10.8985 3.30565,-17.00664 -2.20729,-13.37234 -14.74564,-22.55444 -28.33821,-21.04934 z m 0.11619,1.0566 c 13.01836,-1.44152 25.05638,7.3638 27.17043,20.17124 2.18223,13.22057 -8.30725,25.74182 -21.80333,27.91939 -13.49606,2.17754 -24.91335,-6.79082 -27.0956,-20.0114 -2.18223,-13.22055 6.99145,-25.73934 20.48752,-27.91689 0.42175,-0.0681 0.82103,-0.11586 1.24098,-0.16234 z"
             style="fill:url(#linearGradient4216);fill-opacity:1;fill-rule:evenodd;stroke-width:0.5;filter:url(#filter4141)" />
          <path
             inkscape:connector-curvature="0"
             style="fill:#807d74;fill-opacity:1;fill-rule:evenodd;stroke-width:0.5"
             d="m 344.17328,310.53057 29.61718,27.04843 c -1.89242,3.87599 -4.50058,5.8091 -7.81004,5.83855 l -28.02027,-27.09828 6.21313,-5.7887 z"
             id="path852"
             sodipodi:nodetypes="ccccc" />
          <path
             inkscape:connector-curvature="0"
             sodipodi:nodetypes="ccc"
             id="path4204"
             d="m 344.98664,308.53682 c -25.57774,26.69357 -58.35719,-3.9253 -41.04008,-28.54056 -22.47432,26.70691 17.05217,59.23993 41.04008,28.54056 z"
             style="fill:#273f57;fill-opacity:0.99607843;fill-rule:nonzero;stroke:none" />
          <path
             inkscape:connector-curvature="0"
             style="fill:url(#radialGradient4218);fill-opacity:1;fill-rule:evenodd;stroke:#314e6c;stroke-width:1.13486826;stroke-miterlimit:4;stroke-opacity:0.99523806;stroke-dasharray:none"
             d="m 349.29738,294.36408 c 0.43574,13.26512 -10.53563,24.36721 -24.48967,24.78145 -13.95405,0.41424 -25.63272,-10.01548 -26.06847,-23.2806 -0.43574,-13.26512 10.53563,-24.3672 24.48968,-24.78143 13.95404,-0.41424 25.6327,10.01546 26.06846,23.28058 z"
             id="path853" />
          <path
             inkscape:connector-curvature="0"
             style="fill:url(#linearGradient4220);fill-opacity:0.09090905;fill-rule:evenodd;stroke-width:1pt"
             d="m 334.58464,277.67286 c 3.57111,4.2824 -0.18987,12.77638 -8.39505,18.9598 -8.2052,6.18342 -17.76278,7.72625 -21.33391,3.44384 -3.57111,-4.28239 0.18987,-12.77639 8.39506,-18.95979 8.20519,-6.18343 17.76278,-7.72627 21.3339,-3.44385 z"
             id="path863" />
          <path
             inkscape:connector-curvature="0"
             style="fill:url(#linearGradient4222);fill-opacity:0.55208333;fill-rule:evenodd;stroke-width:1pt"
             d="m 310.11078,312.32383 c 14.49429,4.30904 31.85616,-4.46732 36.42449,-18.21714 4.41474,12.57528 -23.28046,39.53212 -36.42449,18.21714 z"
             id="path885"
             sodipodi:nodetypes="ccc" />
          <path
             inkscape:connector-curvature="0"
             sodipodi:nodetypes="ccccc"
             id="path1766"
             d="m 339.59269,316.18967 4.6224,-4.38252 27.97152,25.69252 c 1.23309,3.32848 -0.44562,5.68159 -6.10065,4.88028 l -26.49327,-26.19028 z"
             style="fill:url(#linearGradient4224);fill-opacity:0.75;fill-rule:evenodd;stroke:none" />
          <path
             inkscape:connector-curvature="0"
             sodipodi:nodetypes="ccccc"
             id="path4187"
             d="m 338.93805,316.8243 4.6224,-4.38252 27.97152,25.69252 c 1.23309,3.32848 -0.44562,5.68159 -6.10065,4.88028 L 338.93805,316.8243 z"
             style="fill:url(#linearGradient4226);fill-opacity:1;fill-rule:evenodd;stroke:none" />
        </g>
      </g>
    </g>
  </g>
</svg>
